Gangster Exchange 2010 BluRay 720p DTS x264-RHD
 
http://www.imdb.com/title/tt0846004/

General
Format : Matroska
File size : 5.19 GiB
Duration : 1h 35mn
Overall bit rate : 7 821 Kbps
Encoded date : UTC 2012-01-14 16:56:56
Writing application : mkvmerge v4.8.0 ('I Got The...') gebaut am May 24 2011 03:12:58
Writing library : libebml v1.2.0 + libmatroska v1.1.0

Video
ID : 1
Format : AVC
Format/Info : Advanced Video Codec
Format profile : High@L4.1
Format settings, CABAC : Yes
Format settings, ReFrames : 5 frames
Codec ID : V_MPEG4/ISO/AVC
Duration : 1h 35mn
Bit rate : 4 646 Kbps
Width : 1 280 pixels
Height : 720 pixels
Display aspect ratio : 16:9
Frame rate : 23.976 fps
Color space : YUV
Chroma subsampling : 4:2:0
Bit depth : 8 bits
Scan type : Progressive
Bits/(Pixel*Frame) : 0.210
Stream size : 3.08 GiB (59%)
Writing library : x264 core 120 r2120 0c7dab9
Language : English

Audio #1
ID : 2
Format : DTS
Format/Info : Digital Theater Systems
Codec ID : A_DTS
Duration : 1h 35mn
Bit rate mode : Constant
Bit rate : 1 510 Kbps
Channel(s) : 6 channels
Channel positions : Front: L C R, Side: L R, LFE
Sampling rate : 48.0 KHz
Bit depth : 16 bits
Compression mode : Lossy
Stream size : 1.00 GiB (19%)
Language : German

Audio #2
ID : 3
Format : DTS
Format/Info : Digital Theater Systems
Codec ID : A_DTS
Duration : 1h 35mn
Bit rate mode : Constant
Bit rate : 1 510 Kbps
Channel(s) : 6 channels
Channel positions : Front: L C R, Side: L R, LFE
Sampling rate : 48.0 KHz
Bit depth : 16 bits
Compressionmode : Lossy
Stream size : 1.00 GiB (19%)
Language : English

Text
ID : 4
Format : PGS
Muxing mode : zlib
Codec ID : S_HDMV/PGS
Codec ID/Info : The same subtitle format used on BDs/HD-DVDs
Language : German


Poster:

 
http://i.imgur.com/bW8Jt.jpg


Screenshots:

 
http://i.imgur.com/pRHJW.jpg


ENJOY!